<?xml version="1.0" encoding="UTF-8"?>
<svg id="_Слой_1" data-name="Слой 1" xmlns="http://www.w3.org/2000/svg" viewBox="0 0 502.83 74.43">
  <defs>
    <style>
      .cls-1 {
        letter-spacing: -.01em;
      }

      .cls-2 {
        fill: #191919;
      }

      .cls-3 {
        fill: #7846c6;
        font-family: FranklinGothic-MediumItalic, 'Franklin Gothic Medium';
        font-size: 65.27px;
        font-style: italic;
        font-weight: 500;
      }

      .cls-4 {
        fill: #b13bc7;
      }

      .cls-5 {
        fill: #8751ce;
      }
    </style>
  </defs>
  <path class="cls-2" d="M106.57,6.49h-7.66v47.93h22.05v-7.05h-14.39V6.49Z"/>
  <path class="cls-2" d="M148,26.83c-.98-1.6-2.37-2.85-4.16-3.77-1.8-.91-3.61-1.37-5.43-1.37-2.35,0-4.51.45-6.46,1.34-1.96.89-3.63,2.11-5.03,3.66-1.4,1.55-2.49,3.34-3.26,5.37-.78,2.03-1.17,4.17-1.17,6.4s.39,4.43,1.17,6.44c.78,2.01,1.87,3.79,3.26,5.34,1.4,1.55,3.07,2.77,5.03,3.66,1.95.89,4.11,1.34,6.46,1.34,1.82,0,3.63-.46,5.43-1.37,1.8-.91,3.19-2.17,4.16-3.77v4.31h7.26v-31.91h-7.26v4.31ZM147.34,42.37c-.44,1.23-1.07,2.31-1.87,3.22-.8.91-1.76,1.64-2.9,2.19-1.13.55-2.39.82-3.76.82s-2.62-.27-3.73-.82c-1.11-.55-2.06-1.28-2.86-2.19-.8-.91-1.41-1.99-1.83-3.22-.42-1.23-.63-2.53-.63-3.9s.21-2.67.63-3.9c.42-1.23,1.03-2.3,1.83-3.22.8-.91,1.75-1.64,2.86-2.19,1.11-.55,2.35-.82,3.73-.82s2.63.27,3.76.82c1.13.55,2.1,1.28,2.9,2.19.8.91,1.42,1.99,1.87,3.22.44,1.23.67,2.53.67,3.9s-.22,2.67-.67,3.9Z"/>
  <path class="cls-2" d="M207.01,26.83c-.98-1.6-2.37-2.85-4.16-3.77-1.8-.91-3.61-1.37-5.43-1.37-2.35,0-4.51.45-6.46,1.34-1.95.89-3.63,2.11-5.03,3.66-1.4,1.55-2.49,3.34-3.26,5.37-.78,2.03-1.16,4.17-1.16,6.4s.39,4.43,1.16,6.44c.78,2.01,1.87,3.79,3.26,5.34,1.4,1.55,3.07,2.77,5.03,3.66,1.95.89,4.11,1.34,6.46,1.34,1.82,0,3.63-.46,5.43-1.37,1.8-.91,3.19-2.17,4.16-3.77v4.31h7.26v-31.91h-7.26v4.31ZM206.35,42.37c-.44,1.23-1.07,2.31-1.87,3.22-.8.91-1.76,1.64-2.9,2.19-1.13.55-2.39.82-3.76.82s-2.62-.27-3.73-.82c-1.11-.55-2.07-1.28-2.86-2.19-.8-.91-1.41-1.99-1.83-3.22-.42-1.23-.63-2.53-.63-3.9s.21-2.67.63-3.9c.42-1.23,1.03-2.3,1.83-3.22.8-.91,1.75-1.64,2.86-2.19,1.11-.55,2.35-.82,3.73-.82s2.63.27,3.76.82c1.13.55,2.1,1.28,2.9,2.19.8.91,1.42,1.99,1.87,3.22.44,1.23.67,2.53.67,3.9s-.22,2.67-.67,3.9Z"/>
  <path class="cls-2" d="M293.91,6.49h-7.26v47.93h7.26V6.49Z"/>
  <path class="cls-2" d="M160.99,54.42h7.26v-24.56h12.45v-7.34h-19.71v31.91Z"/>
  <path class="cls-2" d="M243.38,22.51l-9.12,24.43-9.12-24.43h-7.35l11.92,31.91h9.12l11.92-31.91h-7.35Z"/>
  <path class="cls-2" d="M266.57,21.69c-8.89,0-15.93,7.51-15.93,16.77,0,10.24,6.81,16.77,16.86,16.77,5.62,0,9.21-2.21,13.6-7.02l-4.9-3.9s-3.7,5-9.23,5c-6.42,0-9.12-5.32-9.12-8.07h24.09c1.27-10.54-5.48-19.55-15.36-19.55ZM257.86,35.69c.06-.61.89-8.07,8.65-8.07s8.7,7.46,8.75,8.07h-17.4Z"/>
  <text class="cls-3" transform="translate(309.87 54.42)"><tspan x="0" y="0">Sp</tspan><tspan class="cls-1" x="70.56" y="0">a</tspan><tspan x="104.79" y="0">wn</tspan></text>
  <g>
    <path class="cls-5" d="M82.33,36.57c2.65-2.9,3.04-6.9.64-9.91l-5.09,4.81-1.77-1.93c1.77-1.59,3.37-3.09,4.83-4.96-6.18-5.15-12.35-6.56-20.14-8.84.12-.25.9-.66,1.25-.6,6.34,1.13,15.21,3.39,20.16,7.53,1.14-1.79,2.01-4.48.95-6.82-2.53-5.6-13.7-5.99-18.91-5.87l-.68.02c-.21,0-.25-1,.09-1.04,5.51-.77,15-.44,20.07,3.37,4.3,3.24,3.13,7.94.94,11.99l1.9,2.95c1.66,2.58,1.43,5.72-.16,8.32-3.83,6.24-13.04,9.66-19.87,11.47-5.24,1.39-10.51,1.97-15.96,2.32-1.24.08-2.43.32-3.5.03,10.68-1.09,27.76-4.64,35.25-12.82Z"/>
    <path class="cls-5" d="M20.02,45.55c.3.14-.34,1.02-.67.97-5.91-1.03-14.3-4.17-17.91-9.23-3.27-4.58-.47-9.81,3.44-12.86,6.54-5.12,16.57-8.22,24.88-9.01-5.57,1.52-11.05,3.06-16.26,5.7-4.17,2.3-10.44,6.06-10.59,11.38-.2,7.11,11.29,11.07,17.11,13.06Z"/>
    <path class="cls-5" d="M31.15,50.99c-.3-.7-.41-1.45-.51-2.39,12.26-2.36,23.86-6.29,34.95-12.21l1.22,1.98c-11.19,5.9-22.9,10.06-35.66,12.62Z"/>
    <path class="cls-4" d="M6.09,37.31c-.57-.55-1.14-1.28-1.7-2.15,9.67-12.66,31.44-20.96,45.94-24.37.49-.11.86.54.72.68s-.52.44-.75.49c-10.96,2.73-21.31,6.85-30.85,12.88-4.69,2.97-10.23,7.34-13.36,12.48Z"/>
    <path class="cls-4" d="M18.08,49.84l.34,2.39c-4.76-.22-9.98-1.03-13.77-3.92-2.69-2.04-3.71-5.61-2.37-8.55l2.36,1.89c.14,6.16,8.04,7.66,13.44,8.19Z"/>
    <path class="cls-4" d="M52.09,37.88c-2.79,2.7-6.26,3.8-10.11,3.22-3.15-.47-6.22-2.5-8.11-5.59-3.2-5.22-1.76-11.83,3.09-15.38s11.69-2.88,15.86,1.79,3.82,11.55-.73,15.96Z"/>
    <path class="cls-4" d="M56.68,6.52c2.46-.31,4.52,1.62,4.74,3.76.23,2.27-1.48,4.37-3.88,4.67-2.05.25-4.12-1.45-4.53-3.65s1.16-4.46,3.67-4.78Z"/>
    <path class="cls-4" d="M23.35,46.16c2.46-.74,4.8.71,5.33,3.16.44,2.01-.77,4.33-3.1,4.97-2.04.56-4.4-.63-5.14-2.89-.66-2.02.45-4.5,2.91-5.24Z"/>
    <path class="cls-4" d="M69.85,38.02c-1.23-.86-1.96-2.14-1.99-3.38-.03-1.37.63-2.62,1.77-3.46,1.82-1.35,4.05-1.02,5.59.53,1.41,1.42,1.62,3.73.27,5.45-1.27,1.61-3.68,2.24-5.65.86Z"/>
  </g>
</svg>